<?xml version="1.0" standalone="no"?>
<!DOCTYPE svg PUBLIC "-//W3C//DTD SVG 1.1//EN" "http://www.w3.org/Graphics/SVG/1.1/DTD/svg11.dtd" >
<svg xmlns="http://www.w3.org/2000/svg" xmlns:xlink="http://www.w3.org/1999/xlink" version="1.1">
<metadata></metadata>
<defs>
<font id="bpscriptregular" horiz-adv-x="795" >
<font-face units-per-em="2048" ascent="1638" descent="-410" />
<missing-glyph horiz-adv-x="665" />
<glyph unicode="&#x30;&#x2f;&#x30;" horiz-adv-x="1489" d="M152 0l1019 1598h160l-1011 -1598h-168zM213 1331q0 72 36 133.5t97 97.5t134 36q110 0 187.5 -78.5t77.5 -188.5q0 -72 -35.5 -133.5t-96.5 -97t-133 -35.5q-110 0 -188.5 78t-78.5 188zM359 1331q0 -49 35.5 -84t85.5 -35q48 0 83.5 35t35.5 84q0 48 -36 84t-83 36 q-33 0 -61 -16.5t-44 -44t-16 -59.5zM719 266.5q0 110.5 78 188.5t188 78q73 0 134 -35.5t97 -97t36 -134.5q0 -110 -78 -188t-188.5 -78t-188.5 78t-78 188.5zM866 266q0 -49 35 -84t84 -35t84.5 35t35.5 84q0 24 -10 46t-26 38t-38 26t-46 10q-49 0 -84 -35.5t-35 -84.5z " />
<glyph unicode="copy&#x2a;" horiz-adv-x="1333" d="M0 1064.5q0 107.5 42.5 206.5t114 170.5t170 114t206.5 42.5t206.5 -42.5t169.5 -114t113.5 -170.5t42.5 -206q0 -87 -27 -168t-76.5 -146t-115 -114.5t-146.5 -76.5t-167 -27q-108 0 -206.5 42.5t-170 113.5t-114 169.5t-42.5 206zM160 1065q0 -101 50 -187t136 -136 t187 -50t186.5 50t135.5 136t50 187t-50 187t-135.5 136t-186.5 50t-187 -50t-136 -136t-50 -187zM272 1064.5q0 108.5 76.5 185t184.5 76.5q107 0 183 -77l-93 -93q-34 37 -90 37q-54 0 -91.5 -37.5t-37.5 -90.5q0 -27 10.5 -50.5t27.5 -40.5t41 -27t50 -10q50 0 90 35 l93 -93q-79 -76 -183 -76q-108 0 -184.5 76.5t-76.5 185z" />
<glyph unicode="reg&#x2a;" horiz-adv-x="1333" d="M0 1064.5q0 107.5 42.5 206.5t114 170.5t170 114t206.5 42.5t206.5 -42.5t169.5 -114t113.5 -170.5t42.5 -206q0 -87 -27 -168t-76.5 -146t-115 -114.5t-146.5 -76.5t-167 -27q-108 0 -206.5 42.5t-170 113.5t-114 169.5t-42.5 206zM160 1065q0 -101 50 -187t136 -136 t187 -50t186.5 50t135.5 136t50 187t-50 187t-135.5 136t-186.5 50t-187 -50t-136 -136t-50 -187zM341 812v532h133q110 0 177.5 -56.5t67.5 -134.5q0 -92 -96 -155l149 -186h-165l-79 138l-54 -5v-133h-133zM474 1049q54 0 84.5 25.5t30.5 61.5q0 35 -30 62t-85 27v-176z " />
<glyph unicode="&#x2b;&#x2d;" horiz-adv-x="1375" d="M266 107v147h799v-147h-799zM266 653v145h320v267h159v-267h320v-145h-320v-254h-159v254h-320z" />
<glyph unicode="&#x31;&#x2f;&#x32;" horiz-adv-x="1596" d="M266 533q0 108 42.5 206.5t114 169.5t169.5 113.5t206 42.5t206.5 -42.5t170 -113.5t114 -169.5t42.5 -206.5t-42.5 -206.5t-114 -170t-170 -114t-206 -42.5t-206 42.5t-170 114t-114 170t-42.5 206.5zM426 533h745q0 101 -50 186.5t-136 135.5t-187 50t-186.5 -50 t-135.5 -135.5t-50 -186.5z" />
<glyph unicode="euro&#x2a;" horiz-adv-x="1735" d="M133 586v159h133v107h-133v159h162q35 126 108.5 234.5t173 186t226 122t262.5 44.5q164 0 310.5 -63t258.5 -178l-108 -112q-89 92 -208.5 142.5t-252.5 50.5q-207 0 -372 -119t-233 -308h897l-132 -159h-796v-107h742l-132 -159h-579q67 -190 232 -308t373 -118h345 q193 0 320 126q29 29 43 52l102 -117q-7 -9 -19.5 -24t-56 -53t-93 -67t-130 -53t-166.5 -24h-345q-136 0 -262.5 44t-226 122t-173 186t-108.5 234h-162z" />
<glyph unicode="TM&#x2a;" horiz-adv-x="2658" d="M0 1331q0 68 24.5 120t68.5 83.5t101 47.5t126 16h915l211 -698l188 698h284v-719h158q71 0 134.5 18t103.5 44.5t69.5 52.5t42.5 45l13 18l101 -117q-6 -9 -18.5 -24t-56 -53t-93.5 -67t-130 -53t-166 -24h-318v689l-203 -689h-213l-227 689v-689h-159v732h-290v-732 q0 -81 -20 -141.5t-54 -99t-85.5 -62.5t-109.5 -33.5t-131 -9.5h-80v160h80q55 0 96.5 8.5t75 29t51 57.5t17.5 91v732h-186q-69 0 -114.5 -30.5t-45.5 -84.5q0 -55 44.5 -83t115.5 -28v-160q-69 0 -125.5 15.5t-101 46.5t-69 83t-24.5 121z" />
<glyph horiz-adv-x="0" />
<glyph horiz-adv-x="682" />
<glyph unicode=" "  horiz-adv-x="665" />
<glyph unicode="&#x09;" horiz-adv-x="665" />
<glyph unicode="&#xa0;" horiz-adv-x="665" />
<glyph unicode="!" horiz-adv-x="833" d="M292 132.5q0 55.5 39.5 94.5t95 39t94 -39t38.5 -94.5t-38.5 -94t-94 -38.5t-95 38.5t-39.5 94zM341 533v1065h159v-1065h-159z" />
<glyph unicode="&#x22;" d="M133 932v798h159v-798h-159zM480 932v798h160v-798h-160z" />
<glyph unicode="#" horiz-adv-x="1778" d="M346 292v147h258l36 320h-294v146h309l34 294h160l-34 -294h293l35 294h158l-33 -294h276v-146h-292l-35 -320h327v-147h-343l-32 -292h-160l32 292h-293l-32 -292h-160l33 292h-243zM764 439h293l35 320h-294z" />
<glyph unicode="$" horiz-adv-x="1271" d="M72 386l149 53q37 -109 126 -181.5t202 -92.5v625q-46 16 -81.5 30.5t-75.5 35t-70 42t-58 50.5t-46 61.5t-29 74.5t-11 90q0 80 28.5 150t78.5 120.5t118 84t146 44.5v157h159v-154q59 -8 112 -26.5t104 -52t91.5 -87.5t64.5 -124l-153 -32q-57 131 -219 159v-506 q62 -19 98 -31.5t92 -36t89.5 -44.5t74 -54.5t62.5 -70t37 -86t15 -107.5q0 -86 -25 -159t-68.5 -125.5t-103.5 -91.5t-127.5 -61t-143.5 -30v-170h-159v168q-160 18 -290 117t-187 261zM338 1174q0 -78 54.5 -128t156.5 -88v455q-96 -20 -153.5 -82.5t-57.5 -156.5z M708 165q64 9 119.5 32t99.5 59t69.5 88.5t25.5 115.5q0 46 -17.5 84.5t-44 66t-70 52.5t-84 41.5t-98.5 35.5v-575z" />
<glyph unicode="&#x26;" horiz-adv-x="1812" d="M130 533q0 108 42.5 206.5t114 169.5t170 113.5t206.5 42.5q72 0 122.5 50t50.5 123h160q0 -91 -44.5 -167.5t-121.5 -121t-167 -44.5q-101 0 -187 -50t-136 -135.5t-50 -186.5t50 -187t136 -136t187 -50t187 50t136 136t50 187h-320v159h483q51 0 99 9.5t83.5 25.5 t66 35t50.5 38.5t34.5 35t20.5 25.5l7 10l101 -117q-3 -5 -9 -13t-28.5 -30.5t-48 -43.5t-66.5 -46.5t-85.5 -44t-104.5 -31t-123 -12.5q0 -108 -42.5 -206.5t-114 -170t-170 -114t-206.5 -42.5t-206.5 42.5t-170 114t-114 170t-42.5 206.5z" />
<glyph unicode="'" d="M399 932v798h160v-798h-160z" />
<glyph unicode="(" horiz-adv-x="1075" d="M186 812q0 171 32 325t83 264t112.5 203.5t123.5 153t113 101t82 59.5l32 18l69 -145q-10 -5 -27.5 -15t-68 -50t-96.5 -88.5t-102.5 -131.5t-97 -178t-68 -230.5t-27.5 -285.5q0 -156 27 -295.5t70 -238.5t95 -182.5t104 -135.5t95 -88.5t69 -51.5l27 -15l-69 -143 q-7 4 -20 11t-52.5 34.5t-77.5 60.5t-90.5 89.5t-97 120t-90 153.5t-78 188.5t-52.5 226.5t-20 266z" />
<glyph unicode=")" horiz-adv-x="1075" d="M186 -195q10 5 27.5 15.5t68 51t97 89.5t102.5 134.5t96.5 183t68 237.5t27.5 296q0 118 -16.5 227t-44.5 193.5t-65 160t-77 131t-80.5 101.5t-77 76t-65 51t-44.5 30l-17 9l70 145q7 -4 20 -11t52.5 -34.5t77.5 -60t90 -88t97 -117.5t90.5 -150t77.5 -183.5t52 -220 t20 -259.5q0 -176 -31.5 -334.5t-82.5 -271.5t-112.5 -208t-123 -155.5t-112.5 -103t-83 -59.5l-32 -18z" />
<glyph unicode="*" horiz-adv-x="1333" d="M188 1089l241 138q16 -72 66 -114l-239 -138zM188 1440l68 115l239 -138q-49 -42 -66 -116zM559 798v277q28 -10 66.5 -10t66.5 10v-277h-133zM559 1451v279h133v-279q-35 13 -66.5 13t-66.5 -13zM757 1113q52 48 63 114l242 -138l-66 -114zM757 1417l239 138l66 -115 l-242 -139q-11 68 -63 116z" />
<glyph unicode="+" horiz-adv-x="1375" d="M266 452v147h320v333h159v-333h320v-147h-320v-319h-159v319h-320z" />
<glyph unicode="," d="M399 -399v798h160v-798h-160z" />
<glyph unicode="-" horiz-adv-x="1375" d="M266 452v147h799v-147h-799z" />
<glyph unicode="." d="M399 132.5q0 55.5 39 94.5t94.5 39t94.5 -39t39 -94.5t-38.5 -94t-94.5 -38.5t-95 38.5t-39 94z" />
<glyph unicode="/" horiz-adv-x="1489" d="M133 0l1012 1598h186l-1011 -1598h-187z" />
<glyph unicode="0" horiz-adv-x="1820" d="M79 798q0 163 63.5 311t170.5 255t255 170.5t311 63.5t310.5 -63.5t254.5 -170.5t170 -255t63 -311t-63 -310.5t-170 -254.5t-254.5 -170t-310.5 -63t-311 63t-255 170t-170.5 254.5t-63.5 310.5zM239 798q0 -112 37 -215t105 -187l871 922q-80 57 -176 88.5t-197 31.5 q-105 0 -202.5 -32.5t-176 -91.5t-137.5 -137.5t-91.5 -176t-32.5 -202.5zM493 287q171 -127 386 -127q130 0 248.5 50.5t203.5 135.5t135.5 203.5t50.5 248.5q0 117 -38.5 222.5t-109.5 188.5z" />
<glyph unicode="1" horiz-adv-x="813" d="M213 1451v147h320v-1443h148v-155h-452v155h144v1296h-160z" />
<glyph unicode="2" horiz-adv-x="1212" d="M107 0q23 30 101.5 126.5t150 185.5t162 214.5t155.5 231.5t110 216.5t45 189.5q0 75 -22.5 134t-60.5 94.5t-85 53.5t-99 18q-60 0 -112 -24.5t-92.5 -74.5t-64.5 -122l-127 86q54 142 161 215.5t243 73.5q65 0 125.5 -16.5t114 -53t93 -89t63 -128.5t23.5 -167 q0 -78 -38.5 -184t-95 -205.5t-128 -208.5t-129.5 -185.5t-110 -143.5t-58 -77h660v-160h-985z" />
<glyph unicode="3" horiz-adv-x="1207" d="M88 183l112 112q54 -66 133 -100.5t167 -34.5q94 0 169.5 31t122 83t71 116.5t24.5 133.5q0 68 -24 130.5t-68.5 113t-117.5 81t-163 30.5h-107v143h107q56 0 103 22t76 58t45 79.5t16 88.5q0 42 -14 80t-42 69t-73.5 49t-103.5 18q-49 0 -93.5 -17t-80.5 -45t-73 -69 l-86 104q151 167 348 167q82 0 151 -27t114.5 -73t70.5 -106t25 -126q0 -191 -157 -311q63 -27 114 -65t85.5 -82t57.5 -95.5t33.5 -103.5t10.5 -107q0 -80 -23 -157t-69 -143.5t-109.5 -117.5t-148 -80t-180.5 -29q-120 0 -231.5 45.5t-191.5 134.5z" />
<glyph unicode="4" horiz-adv-x="1232" d="M26 266l959 1358v-1198h160v-160h-160v-266h-159v266h-800zM322 426h504v740z" />
<glyph unicode="5" horiz-adv-x="1232" d="M109 290l145 73q46 -92 135 -147.5t197 -55.5q101 0 187 50t135.5 136t49.5 187t-49.5 186.5t-135.5 135.5t-187 50q-63 0 -128.5 -15t-109.5 -49l-135 101l133 656h612v-150h-476l-93 -412q74 29 197 29q108 0 206.5 -42.5t169.5 -113.5t113.5 -169.5t42.5 -206.5 t-42.5 -206.5t-113.5 -170t-169.5 -114t-206.5 -42.5q-154 0 -282 79t-195 211z" />
<glyph unicode="6" horiz-adv-x="1258" d="M133 465q0 110 45 203l421 958l149 -66l-285 -650q73 22 136 22q96 0 182 -37t148 -99t99 -148.5t37 -182t-37 -181.5t-99 -148.5t-148 -99t-181.5 -36.5t-182 36.5t-149 99t-99 148.5t-36.5 181zM295 465.5q0 -125.5 89 -214.5t215 -89t214.5 89t88.5 214.5t-88.5 215 t-214 89.5t-215 -89.5t-89.5 -215z" />
<glyph unicode="7" horiz-adv-x="1159" d="M160 1433v165h879l-691 -1598h-175l610 1433h-623z" />
<glyph unicode="8" horiz-adv-x="1207" d="M0 465q0 124 58.5 228.5t159.5 167.5q-81 58 -128 148t-47 195q0 114 56.5 210t153 151.5t210.5 55.5t210 -55.5t152 -151.5t56 -210q0 -102 -45.5 -192.5t-124.5 -148.5q101 -60 161 -166.5t60 -231.5q0 -95 -37 -181t-99 -148.5t-148.5 -99t-182 -36.5t-181.5 36.5 t-148.5 99t-99 148.5t-36.5 181zM157 465.5q0 -127.5 90.5 -218t217.5 -90.5q84 0 154.5 41.5t111.5 112.5t41 154q0 128 -89.5 217.5t-217 89.5t-218 -89.5t-90.5 -217zM203 1204q0 -109 76 -185.5t184 -76.5t183.5 76.5t75.5 185.5q0 108 -75.5 182.5t-184 74.5 t-184 -74.5t-75.5 -182.5z" />
<glyph unicode="9" horiz-adv-x="1197" d="M79 1134q0 95 37 181.5t99.5 149t149 99t181.5 36.5t181.5 -36.5t148.5 -99t98.5 -149t36.5 -181.5q0 -109 -45 -202l-420 -958l-150 66l285 649q-68 -21 -135 -21q-64 0 -124.5 16.5t-111.5 46.5t-94 73t-73 94t-47 111.5t-17 124.5zM242 1133.5q0 -125.5 89 -214 t215 -88.5q82 0 152 40.5t110.5 110t40.5 152.5q0 125 -88.5 214.5t-214.5 89.5t-215 -89.5t-89 -215z" />
<glyph unicode=":" d="M399 132.5q0 55.5 39 94.5t94.5 39t94.5 -39t39 -94.5t-38.5 -94t-94.5 -38.5t-95 38.5t-39 94zM399 798q0 28 10.5 52.5t28.5 42.5t43 28.5t52 10.5q36 0 66.5 -18t48.5 -48.5t18 -67t-18 -67t-48.5 -48t-66.5 -17.5q-56 0 -95 38.5t-39 93.5z" />
<glyph unicode=";" d="M399 798q0 28 10.5 52.5t28.5 42.5t43 28.5t52 10.5q36 0 66.5 -18t48.5 -48.5t18 -67t-18 -67t-48.5 -48t-66.5 -17.5q-56 0 -95 38.5t-39 93.5zM452 -399v798h160v-798h-160z" />
<glyph unicode="&#x3c;" horiz-adv-x="1357" d="M292 506v35l800 524v-186l-541 -346l541 -345v-188z" />
<glyph unicode="=" horiz-adv-x="1375" d="M266 266v146h799v-146h-799zM266 666v160h799v-160h-799z" />
<glyph unicode="&#x3e;" horiz-adv-x="1357" d="M292 0v188l541 345l-541 346v186l800 -524v-35z" />
<glyph unicode="?" horiz-adv-x="1011" d="M120 1357q0 84 23.5 155.5t64.5 122.5t95 87.5t115.5 54t124.5 17.5q62 0 120 -17t109.5 -52.5t89.5 -86t60.5 -123t22.5 -158.5q0 -91 -22.5 -177.5t-60 -159t-98 -150t-124 -141.5t-150.5 -143l-99 98q4 3 11 11q37 37 56 56.5t54.5 57t55 61t50 60.5t48 65.5 t40.5 65.5t36 70t25.5 71t17.5 77t5 78q0 67 -22.5 121t-60.5 88.5t-85.5 53t-97.5 18.5q-48 0 -93 -19t-81 -53.5t-58 -88.5t-23 -120h-149zM292 132.5q0 55.5 39.5 94.5t95 39t94 -39t38.5 -94.5t-38.5 -94t-94 -38.5t-95 38.5t-39.5 94z" />
<glyph unicode="@" horiz-adv-x="2525" d="M157 549q0 100 21 199.5t59 192t94.5 178t126 159t154.5 134t178.5 102.5t200.5 65.5t218 23.5q129 0 244.5 -22.5t206.5 -61.5t170 -93t137 -116.5t105.5 -133t78.5 -140.5t51.5 -141.5t29.5 -133.5t9 -119q0 -44 -1.5 -85t-6.5 -92t-13.5 -96t-22.5 -93t-32.5 -87.5 t-45.5 -75t-60 -60t-76.5 -39t-94.5 -14.5h-349v150q-73 -72 -168.5 -111t-201.5 -39q-108 0 -206.5 42.5t-170 114t-114 170t-42.5 206.5t42.5 206.5t114 169.5t170 113.5t206.5 42.5q106 0 202.5 -40.5t170.5 -111.5v152h160v-905h186q197 0 197 482q0 54 -10.5 117 t-38 142t-70 153t-112.5 145.5t-157.5 125t-213.5 86t-274 32.5q-126 0 -243.5 -34.5t-213 -95t-174.5 -145t-133 -183t-83 -209.5t-29 -225q0 -88 16 -176.5t50 -176.5t84 -166.5t122 -146.5t158.5 -117.5t199 -77.5t238.5 -28v-160q-151 0 -286 33t-239 90.5t-190.5 137 t-146.5 172t-101.5 196t-61 208.5t-19.5 210zM796 533q0 -101 50 -187t136 -136t187 -50t187 50t136 136t50 187t-50 186.5t-136 135.5t-187 50t-187 -50t-136 -135.5t-50 -186.5z" />
<glyph unicode="A" horiz-adv-x="1804" d="M0 0l480 1438h-160q-71 0 -115.5 -27t-44.5 -80q0 -60 53 -86l-101 -130q-112 70 -112 216q0 68 24.5 120t68.5 83.5t101 47.5t126 16h506l454 -1438h214q192 0 318 126q29 29 43 52l101 -117q-6 -9 -18.5 -24t-55.5 -53t-92.5 -67t-129.5 -53t-166 -24h-349l-123 381 h-707l-129 -381h-186zM365 533h610l-296 933z" />
<glyph unicode="B" horiz-adv-x="1812" d="M0 1331q0 68 24.5 120t68.5 83.5t101 47.5t126 16h346q90 0 167.5 -13.5t145.5 -43.5t116 -75.5t76 -113.5t28 -153q0 -92 -60.5 -172.5t-140.5 -110.5q61 -4 119.5 -30.5t106 -69t84 -96t56.5 -116t20 -124.5q0 -95 -32.5 -177t-91.5 -143h234q192 0 318 126 q29 29 43 52l101 -117q-6 -9 -18.5 -24t-55.5 -53t-92.5 -67t-129.5 -53t-166 -24h-1174v1065q-69 0 -125.5 15.5t-101 46.5t-69 83t-24.5 121zM160 1331q0 -54 44 -80t116 -26v213q-71 0 -115.5 -27t-44.5 -80zM480 160h372q104 0 187.5 36.5t134.5 110t51 173t-51 173 t-134.5 109.5t-187.5 36h-372v-638zM480 958h292q42 0 76.5 5t71 20.5t61.5 41.5t41.5 70t16.5 104q0 64 -29 111.5t-81.5 74.5t-117.5 40t-145 13h-186v-480z" />
<glyph unicode="C" horiz-adv-x="1825" d="M0 798q0 163 63 311t170 255t254.5 170.5t310.5 63.5q110 0 214.5 -29.5t193.5 -82.5t163 -129l-109 -112q-89 92 -208.5 142.5t-253.5 50.5q-130 0 -248.5 -50.5t-203.5 -136.5t-135.5 -204t-50.5 -248.5t50.5 -249t135.5 -203.5t203.5 -135.5t248.5 -50.5h719 q192 0 320 126q29 29 43 52l101 -117q-6 -9 -18.5 -24t-56 -53t-93.5 -67t-130 -53t-166 -24h-719q-163 0 -310.5 63t-254.5 170t-170 254.5t-63 310.5z" />
<glyph unicode="D" horiz-adv-x="1903" d="M0 -186h79q55 0 96.5 8.5t75 29t51.5 58t18 90.5v1065q-69 0 -125.5 15.5t-101 46.5t-69 83t-24.5 121q0 68 24.5 120t68.5 83.5t101 47.5t126 16h492q161 -3 306 -67.5t250.5 -171t167.5 -253.5t62 -308q0 -194 -85.5 -361t-234.5 -277h320q192 0 318 126q29 29 43 52 l101 -117q-6 -9 -18.5 -24t-55.5 -53t-92.5 -67t-129.5 -53t-166 -24h-1118q0 -80 -20 -141t-54 -99.5t-86 -62.5t-110 -33.5t-131 -9.5h-79v160zM160 1331q0 -54 44 -80t116 -26v213q-71 0 -115.5 -27t-44.5 -80zM480 160h332q103 1 198 34t172 92t135 137t89.5 175 t31.5 200q0 130 -50.5 248.5t-136.5 204.5t-204.5 136.5t-248.5 50.5h-318v-1278z" />
<glyph unicode="E" horiz-adv-x="1778" d="M0 1331q0 68 24.5 120t68.5 83.5t101 47.5t126 16h1064v-147h-904v-519h772v-147h-772v-625h984q192 0 319 126q29 29 43 52l102 -117q-3 -5 -9.5 -13t-29 -30.5t-48 -43.5t-66.5 -46.5t-85 -44t-104 -31t-122 -12.5h-1144v1065q-69 0 -125.5 15.5t-101 46.5t-69 83 t-24.5 121zM160 1331q0 -54 44 -80t116 -26v213q-71 0 -115.5 -27t-44.5 -80z" />
<glyph unicode="F" horiz-adv-x="1514" d="M0 -186h79q55 0 96.5 8.5t75 29t51.5 58t18 90.5v1065q-69 0 -125.5 15.5t-101 46.5t-69 83t-24.5 121q0 68 24.5 120t68.5 83.5t101 47.5t126 16h1064v-147h-904v-519h772v-147h-772v-785q0 -80 -20 -141t-54 -99.5t-86 -62.5t-110 -33.5t-131 -9.5h-79v160zM160 1331 q0 -54 44 -80t116 -26v213q-71 0 -115.5 -27t-44.5 -80z" />
<glyph unicode="G" horiz-adv-x="1969" d="M0 798q0 163 63 311t170 255t254.5 170.5t310.5 63.5q110 0 214.5 -29.5t193.5 -82.5t163 -129l-109 -112q-89 92 -208.5 142.5t-253.5 50.5q-130 0 -248.5 -50.5t-203.5 -136.5t-135.5 -204t-50.5 -248.5t50.5 -249t135.5 -203.5t203.5 -135.5t248.5 -50.5 q147 0 276.5 62t219 171t123.5 247h-512v158h693q0 -194 -85.5 -361t-234.5 -277h373q192 0 318 126q29 29 43 52l102 -117q-7 -9 -19 -24t-55.5 -53t-93 -67t-129.5 -53t-166 -24h-853q-163 0 -310.5 63t-254.5 170t-170 254.5t-63 310.5z" />
<glyph unicode="H" horiz-adv-x="1804" d="M0 -186h79q55 0 96.5 8.5t75 29t51.5 58t18 90.5v1065q-69 0 -125.5 15.5t-101 46.5t-69 83t-24.5 121q0 68 24.5 120t68.5 83.5t101 47.5t126 16h160v-666h694v666h160v-1438h160q192 0 318 126q29 29 43 52l101 -117q-6 -9 -18.5 -24t-55.5 -53t-92.5 -67t-129.5 -53 t-166 -24h-320v785h-694v-785q0 -80 -20 -141t-54 -99.5t-86 -62.5t-110 -33.5t-131 -9.5h-79v160zM160 1331q0 -54 44 -80t116 -26v213q-71 0 -115.5 -27t-44.5 -80z" />
<glyph unicode="I" horiz-adv-x="1159" d="M0 1331q0 68 24.5 120t68.5 83.5t101 47.5t126 16h160v-1065q0 -101 49.5 -187t135.5 -136t187 -50q192 0 319 126q29 29 43 52l102 -117q-7 -9 -19.5 -24t-56 -53t-93 -67t-130 -53t-165.5 -24q-108 0 -206.5 42.5t-170 114t-113.5 170t-42 206.5v532q-69 0 -125.5 15.5 t-101 46.5t-69 83t-24.5 121zM160 1331q0 -54 44 -80t116 -26v213q-71 0 -115.5 -27t-44.5 -80z" />
<glyph unicode="J" horiz-adv-x="1492" d="M0 452h160q0 -60 28.5 -115.5t73.5 -93.5t99 -60.5t104.5 -22.5t105 22.5t99 60.5t73.5 93.5t29 115.5v613q-68 0 -125 15.5t-101 46.5t-69 83t-25 121q0 68 25 120t69 83.5t101 47.5t125 16h160v-1146q0 -169 -106 -292h345q193 0 320 126q29 29 43 52l100 -117 q-6 -9 -18.5 -24t-56 -53t-93 -67t-129.5 -53t-166 -24h-708q-88 0 -172 35t-148.5 94t-103.5 144t-39 179zM612 1331q0 -54 44.5 -80t115.5 -26v213q-34 0 -62.5 -6.5t-50.5 -19t-34.5 -33.5t-12.5 -48z" />
<glyph unicode="K" horiz-adv-x="1716" d="M0 -186h79q55 0 96.5 8.5t75 29t51.5 58t18 90.5v1065q-69 0 -125.5 15.5t-101 46.5t-69 83t-24.5 121q0 68 24.5 120t68.5 83.5t101 47.5t126 16h160v-693h138l436 665h186l-498 -744l544 -666h124q193 0 320 126q29 29 43 52l102 -117q-7 -9 -19.5 -24t-56 -53t-93 -67 t-130 -53t-166.5 -24h-185l-613 745h-132v-745q0 -80 -20 -141t-54 -99.5t-86 -62.5t-110 -33.5t-131 -9.5h-79v160zM160 1331q0 -54 44 -80t116 -26v213q-71 0 -115.5 -27t-44.5 -80z" />
<glyph unicode="L" horiz-adv-x="1235" d="M0 1331q0 68 24.5 120t68.5 83.5t101 47.5t126 16h160v-1438h442q190 0 316 126q28 29 42 52l102 -117q-6 -9 -18.5 -24t-56 -53t-93 -67t-129.5 -53t-166 -24h-599v1065q-69 0 -125.5 15.5t-101 46.5t-69 83t-24.5 121zM160 1331q0 -54 44 -80t116 -26v213 q-71 0 -115.5 -27t-44.5 -80z" />
<glyph unicode="M" horiz-adv-x="2076" d="M0 -186h79q55 0 96.5 8.5t75 29t51.5 58t18 90.5v1065q-69 0 -125.5 15.5t-101 46.5t-69 83t-24.5 121q0 68 24.5 120t68.5 83.5t101 47.5t126 16h279l379 -1417l340 1417h282v-1438h160q192 0 319 126q29 29 43 52l101 -117q-6 -9 -18.5 -24t-56 -53t-93 -67t-129.5 -53 t-166 -24h-320v1408l-353 -1408h-213l-394 1408v-1408q0 -80 -20 -141t-54 -99.5t-86 -62.5t-110 -33.5t-131 -9.5h-79v160zM160 1331q0 -54 44 -80t116 -26v213q-71 0 -115.5 -27t-44.5 -80z" />
<glyph unicode="N" horiz-adv-x="1804" d="M0 -186h79q55 0 96.5 8.5t75 29t51.5 58t18 90.5v1065q-69 0 -125.5 15.5t-101 46.5t-69 83t-24.5 121q0 68 24.5 120t68.5 83.5t101 47.5t126 16h239l615 -1372v1372h160v-1438h160q192 0 318 126q29 29 43 52l101 -117q-6 -9 -18.5 -24t-55.5 -53t-92.5 -67t-129.5 -53 t-166 -24h-399l-615 1408v-1408q0 -80 -20 -141t-54 -99.5t-86 -62.5t-110 -33.5t-131 -9.5h-79v160zM160 1331q0 -54 44 -80t116 -26v213q-71 0 -115.5 -27t-44.5 -80z" />
<glyph unicode="O" horiz-adv-x="1794" d="M0 798q0 163 63 311t170 255t254.5 170.5t310.5 63.5t311 -63.5t255 -170.5t170.5 -255t63.5 -311q0 -194 -85.5 -361t-234.5 -277h213q192 0 319 126q28 29 42 52l102 -117q-6 -9 -18.5 -24t-56 -53t-93 -67t-129.5 -53t-166 -24h-693q-163 0 -310.5 63t-254.5 170 t-170 254.5t-63 310.5zM160 798.5q0 -130.5 50.5 -249t135.5 -203.5t203.5 -135.5t248.5 -50.5q105 0 202.5 32t176 91t137.5 137.5t91.5 176t32.5 201.5q0 130 -50.5 248.5t-136.5 204.5t-204.5 136.5t-248.5 50.5t-248.5 -50.5t-203.5 -136.5t-135.5 -204t-50.5 -248.5z " />
<glyph unicode="P" horiz-adv-x="1613" d="M0 1331q0 68 24.5 120t68.5 83.5t101 47.5t126 16h532q107 0 205.5 -42.5t170.5 -114t114 -170.5t42 -206.5t-42 -206t-114 -169.5t-170.5 -113.5t-205.5 -42.5h-372v-373h828q192 0 318 126q29 29 43 52l102 -117q-7 -9 -19 -24t-55.5 -53t-93 -67t-129.5 -53t-166 -24 h-988v1065q-69 0 -125.5 15.5t-101 46.5t-69 83t-24.5 121zM160 1331q0 -54 44 -80t116 -26v213q-71 0 -115.5 -27t-44.5 -80zM480 692h372q75 0 144 29.5t119 79.5t80 119t30 145q0 101 -50.5 187t-136 136t-186.5 50h-372v-746z" />
<glyph unicode="Q" horiz-adv-x="1825" d="M0 798q0 163 63 311t170 255t254.5 170.5t310.5 63.5t311 -63.5t255 -170.5t170.5 -255t63.5 -311q0 -194 -85.5 -361t-234.5 -277h239q192 0 320 126q29 29 43 52l101 -117q-6 -9 -18.5 -24t-56 -53t-93.5 -67t-130 -53t-166 -24h-633l3 -91q1 -71 20 -134.5t45 -103 t51.5 -69t43.5 -42.5l18 -12l-117 -102q-9 7 -24 19t-53 55.5t-67.5 93t-53 129.5t-23.5 166v94q-152 13 -286.5 80.5t-231 172.5t-153 246.5t-56.5 295.5zM160 798q0 -121 44 -232.5t119.5 -195t180 -139t223.5 -69.5v371h152l5 -368q116 15 219 70.5t176.5 139t116 193.5 t42.5 230q0 130 -50.5 248.5t-136.5 204.5t-204.5 136.5t-248.5 50.5t-248.5 -50.5t-203.5 -136.5t-135.5 -204t-50.5 -249z" />
<glyph unicode="R" horiz-adv-x="1730" d="M0 1331q0 68 24.5 120t68.5 83.5t101 47.5t126 16h532q108 0 206 -38.5t170 -104.5t114 -161t42 -202q0 -181 -111 -315.5t-285 -174.5l290 -442h132q193 0 320 126q29 29 43 52l102 -117q-7 -9 -19.5 -24t-56 -53t-93 -67t-130 -53t-166.5 -24h-211l-384 586h-335v-586 h-160v1065q-69 0 -125.5 15.5t-101 46.5t-69 83t-24.5 121zM160 1331q0 -54 44 -80t116 -26v213q-71 0 -115.5 -27t-44.5 -80zM480 745h372q102 0 187 43.5t135.5 123.5t50.5 180t-50.5 180t-135.5 123t-187 43h-372v-693z" />
<glyph unicode="S" horiz-adv-x="1618" d="M18 386l150 53q28 -84 91 -148t144 -97.5t169 -33.5h14q58 1 113 14t104 38t86 59.5t58 83t21 105.5q0 38 -11.5 70.5t-28 56.5t-49.5 47.5t-58 38.5t-73.5 33.5t-76.5 28t-84 27.5q-45 15 -68 22.5t-65.5 22.5t-65.5 26t-59.5 29t-57 34.5t-47.5 39t-42 47t-30 54 t-21 64t-6 73.5q0 90 36 167.5t97 129.5t143 81.5t174 29.5q36 0 72.5 -4t76 -14t75 -25.5t71 -39t64.5 -53.5t53.5 -71t40.5 -89l-154 -32q-20 47 -54 81t-75.5 52.5t-83.5 26.5t-86 8q-81 0 -146.5 -28.5t-104.5 -86t-39 -133.5q0 -54 28.5 -95.5t77 -69.5t111.5 -51 t132.5 -44t139 -44.5t132.5 -57.5t111.5 -77.5t77 -109t28.5 -148.5q0 -197 -125 -317h310q192 0 318 126q29 29 43 52l102 -117q-7 -9 -19 -24t-55.5 -53t-93 -67t-129.5 -53t-166 -24h-736l-13 5q-114 0 -220.5 43.5t-192 131t-128.5 206.5z" />
<glyph unicode="T" horiz-adv-x="1554" d="M0 1331q0 68 24.5 120t68.5 83.5t101 47.5t126 16h1064v-147h-558v-1291h401q193 0 320 126q29 29 43 52l100 -117q-6 -9 -18.5 -24t-56 -53t-93 -67t-129.5 -53t-166 -24h-401q0 -80 -20 -141t-54 -99.5t-85.5 -62.5t-109.5 -33.5t-131 -9.5h-80v160h80q55 0 96.5 8.5 t75 29t51 58t17.5 90.5v1451h-346q-69 0 -114.5 -30.5t-45.5 -84.5q0 -55 44.5 -83t115.5 -28v-160q-69 0 -125.5 15.5t-101 46.5t-69 83t-24.5 121z" />
<glyph unicode="U" horiz-adv-x="1641" d="M0 798v800h160v-800q0 -89 13 -170t39 -152.5t68 -129t97 -99.5t128.5 -64.5t160 -22.5t160 22.5t128.5 64.5t97 99.5t68 129t39 152.5t13 170v800h160v-800q0 -441 -266 -638h266q193 0 320 126q29 29 43 52l100 -117q-6 -9 -18.5 -24t-56 -53t-93 -67t-129.5 -53 t-166 -24h-665q-130 0 -239 40.5t-187 113t-132.5 172.5t-81 219.5t-26.5 252.5z" />
<glyph unicode="V" horiz-adv-x="1621" d="M0 1598h186l493 -1468l466 1468h186l-455 -1438h429q192 0 319 126q29 29 43 52l101 -117q-6 -9 -18.5 -24t-56 -53t-93 -67t-129.5 -53t-166 -24h-772z" />
<glyph unicode="W" horiz-adv-x="2145" d="M3 1598h185l493 -1468l168 525l-313 943h186l218 -653l208 653h186l-298 -940l178 -514l466 1454h187l-457 -1438h430q192 0 319 126q29 29 43 52l102 -117q-7 -9 -19.5 -24t-56 -53t-93 -67t-130 -53t-165.5 -24h-773l-122 368l-117 -368h-292z" />
<glyph unicode="X" horiz-adv-x="1716" d="M0 0l549 866l-549 732h205l437 -584l369 584h188l-457 -719l544 -719h124q193 0 320 126q29 29 43 52l102 -117q-7 -9 -19.5 -24t-56 -53t-93 -67t-130 -53t-166.5 -24h-211l-549 729l-464 -729h-186z" />
<glyph unicode="Y" horiz-adv-x="1484" d="M0 1598h181l429 -895l407 895h182l-507 -1065v-373h482q192 0 320 126q29 29 43 52l101 -117q-6 -9 -18.5 -24t-56.5 -53t-93.5 -67t-129.5 -53t-166 -24h-482q0 -80 -20 -141t-54 -99.5t-85.5 -62.5t-109.5 -33.5t-131 -9.5h-79v160h79q55 0 96.5 8.5t75.5 29t51.5 58 t17.5 90.5v533z" />
<glyph unicode="Z" horiz-adv-x="1716" d="M0 0l927 1451h-794v147h1066l-912 -1438h1123q193 0 320 126q29 29 43 52l102 -117q-7 -9 -19.5 -24t-56 -53t-93 -67t-130 -53t-166.5 -24h-1410z" />
<glyph unicode="[" horiz-adv-x="1011" d="M266 -160v2024h442v-147h-282v-1730h282v-147h-442z" />
<glyph unicode="\" horiz-adv-x="1489" d="M133 1598h187l1011 -1598h-186z" />
<glyph unicode="]" horiz-adv-x="1011" d="M266 -13h283v1730h-283v147h442v-2024h-442v147z" />
<glyph unicode="^" horiz-adv-x="1634" d="M346 1065l461 639h37l487 -639h-186l-319 421l-293 -421h-187z" />
<glyph unicode="_" horiz-adv-x="1804" d="M266 0v160h1332v-160h-1332z" />
<glyph unicode="a" horiz-adv-x="1596" d="M0 533q0 108 42.5 206.5t114 169.5t170 113.5t206.5 42.5q106 0 202 -40.5t170 -111.5v152h160v-905h215q191 0 318 126q29 29 43 52l100 -117q-7 -9 -19.5 -24t-56 -53t-92.5 -67t-128.5 -53t-164.5 -24h-375v152q-10 -21 -70.5 -56.5t-147.5 -65.5t-154 -30 q-108 0 -206.5 42.5t-170 114t-114 170t-42.5 206.5zM160 533q0 -101 50 -187t136 -136t187 -50t186.5 50t135.5 136t50 187t-50 186.5t-135.5 135.5t-186.5 50t-187 -50t-136 -135.5t-50 -186.5z" />
<glyph unicode="b" horiz-adv-x="1461" d="M0 533v1197h160v-820q74 74 169.5 114.5t203.5 40.5t206.5 -42.5t169.5 -113.5t113.5 -169.5t42.5 -206.5q0 -102 -37.5 -200.5t-108.5 -172.5h226q192 0 319 126q29 29 43 52l101 -117q-6 -9 -18.5 -24t-56 -53t-93 -67t-129.5 -53t-166 -24h-612q-231 0 -382 149 t-151 384zM160 533q0 -100 48.5 -184.5t134 -135.5t190.5 -53q104 0 190 50t134 135.5t48 187.5q0 100 -50 185.5t-135.5 136t-186.5 50.5q-74 0 -141.5 -28t-117.5 -76t-80.5 -114.5t-33.5 -140.5v-13z" />
<glyph unicode="c" horiz-adv-x="1149" d="M0 533q0 108 42.5 206.5t114 169.5t170 113.5t206.5 42.5q151 0 279 -80l-90 -133q-92 53 -189 53q-101 0 -187 -50t-136 -135.5t-50 -186.5t50 -187t136 -136t187 -50h293q192 0 318 126q29 29 43 52l101 -117q-6 -9 -18.5 -24t-56 -53t-92.5 -67t-129.5 -53t-165.5 -24 h-293q-108 0 -206.5 42.5t-170 114t-114 170t-42.5 206.5z" />
<glyph unicode="d" horiz-adv-x="1524" d="M0 533q0 108 42.5 206.5t114 169.5t170 113.5t206.5 42.5q106 0 202 -40.5t170 -111.5v817h160v-1570h162q191 0 317 126q29 29 43 52l100 -117q-6 -9 -18.5 -24t-56 -53t-92.5 -67t-128.5 -53t-164.5 -24h-322v152q-10 -21 -70.5 -56.5t-147.5 -65.5t-154 -30 q-108 0 -206.5 42.5t-170 114t-114 170t-42.5 206.5zM160 533q0 -101 50 -187t136 -136t187 -50t186.5 50t135.5 136t50 187t-50 186.5t-135.5 135.5t-186.5 50t-187 -50t-136 -135.5t-50 -186.5z" />
<glyph unicode="e" horiz-adv-x="1458" d="M3 533q0 108 42.5 206.5t114 169.5t170 113.5t206.5 42.5q83 0 161 -24.5t144.5 -74t116.5 -118.5t78.5 -163.5t28.5 -204.5h-903q20 -136 126 -228t245 -92h612q192 0 319 126q29 29 43 52l101 -117q-6 -9 -18.5 -24t-56 -53t-93 -67t-129.5 -53t-166 -24h-612 q-107 0 -205 42t-169.5 113.5t-113.5 170t-42 207.5zM173 623h716q-7 82 -60.5 146.5t-132 97.5t-166.5 33q-46 0 -90 -10t-86.5 -32t-77 -53.5t-61.5 -78t-42 -103.5z" />
<glyph unicode="f" horiz-adv-x="925" d="M-133 919v146h133v345q0 56 24 112.5t66 103t106 75.5t137 29t137 -29t106 -75.5t66 -103t24 -112.5h-160q0 17 -5 35t-14 36t-24 34t-33.5 28.5t-43.5 19.5t-53 7q-42 0 -76 -15.5t-54.5 -39.5t-31.5 -51.5t-11 -53.5v-345h506v-146h-506v-759h452q193 0 320 126 q29 29 43 52l100 -117q-6 -9 -18.5 -24t-56 -53t-93 -67t-129.5 -53t-166 -24h-612v919h-133z" />
<glyph unicode="g" horiz-adv-x="1461" d="M0 -373q0 141 68.5 261t185.5 191q-117 72 -185.5 192.5t-68.5 261.5q0 108 42.5 206.5t114 169.5t170 113.5t206.5 42.5t206.5 -42.5t169.5 -113.5t113.5 -169.5t42.5 -206.5t-40.5 -203.5t-114.5 -169.5h235q192 0 319 126q29 29 43 52l101 -117q-6 -9 -18.5 -24 t-56 -53t-93 -67t-129.5 -53t-166 -24h-232q71 -74 111.5 -170.5t40.5 -202.5q0 -108 -42.5 -206.5t-113.5 -169.5t-169.5 -113.5t-206.5 -42.5t-206.5 42.5t-170 113.5t-114 169.5t-42.5 206.5zM160 -373q0 -101 50 -186.5t136 -135.5t187 -50t186.5 50t135.5 135.5 t50 186.5q0 99 -48 184.5t-134 137t-190 51.5q-101 0 -187 -50t-136 -136t-50 -187zM160 533q0 -101 50 -187t137.5 -136t190.5 -50q100 1 184.5 51t133.5 135.5t49 186.5t-50 186.5t-135.5 135.5t-186.5 50t-187 -50t-136 -135.5t-50 -186.5z" />
<glyph unicode="h" horiz-adv-x="1461" d="M0 0v1730h160v-899q33 71 101 126t145.5 81.5t152.5 26.5q107 0 202 -42.5t161 -114t104.5 -169.5t38.5 -206v-373h160q97 0 247 143l35 35l101 -117q-7 -9 -20.5 -24t-56 -53t-85.5 -67t-104 -53t-117 -24h-320v533q0 101 -50 186.5t-135.5 135.5t-186.5 50t-187 -50 t-136 -135.5t-50 -186.5v-533h-160z" />
<glyph unicode="i" horiz-adv-x="841" d="M-66 1464q0 56 38.5 95t94 39t94.5 -39.5t39 -95t-39 -94t-94.5 -38.5t-94 38.5t-38.5 94.5zM0 533v532h160v-532q0 -101 50 -187t136 -136t187 -50q192 0 318 126q29 29 43 52l102 -117q-7 -9 -19 -24t-55.5 -53t-93 -67t-129.5 -53t-166 -24q-108 0 -206.5 42.5 t-170 114t-114 170t-42.5 206.5z" />
<glyph unicode="j" horiz-adv-x="709" d="M-503 -346h160q0 -66 8 -117t27 -92t53.5 -63t84.5 -22q39 0 69.5 15t49.5 40.5t31.5 63t17.5 80.5t5 95v1265h-133v146h292v-905h240q192 0 319 126q29 29 43 52l102 -117q-7 -9 -19 -24t-56 -53t-93.5 -67t-129.5 -53t-166 -24h-240v-346q0 -67 -6 -123.5t-21 -108.5 t-40.5 -91.5t-61.5 -69t-87.5 -44.5t-115.5 -15q-78 0 -136.5 22.5t-95.5 61.5t-60 97.5t-32 124t-9 146.5zM-64 1464q0 36 17.5 67t48 49t67.5 18q55 0 94.5 -39.5t39.5 -95t-39 -94t-95 -38.5t-94.5 38.5t-38.5 94.5z" />
<glyph unicode="k" horiz-adv-x="1255" d="M0 0v1730h160v-1090h138l357 425h186l-417 -506l383 -399h125q192 0 319 126q28 29 43 52l101 -117q-6 -9 -18.5 -24t-56 -53t-93 -67t-129.5 -53t-166 -24h-213l-453 480h-106v-480h-160z" />
<glyph unicode="l" horiz-adv-x="854" d="M0 533v1197h160v-1197q0 -101 50 -187t136 -136t187 -50q192 0 318 126q29 29 43 52l102 -117q-7 -9 -19 -24t-55.5 -53t-93 -67t-129.5 -53t-166 -24q-108 0 -206.5 42.5t-170 114t-114 170t-42.5 206.5z" />
<glyph unicode="m" horiz-adv-x="2368" d="M3 0v1065h159v-234q34 71 101.5 126t145 81.5t153.5 26.5q136 0 243.5 -66.5t182.5 -186.5q71 116 191 184.5t261 68.5q118 0 218.5 -42t169 -114t107 -169.5t38.5 -206.5v-373h159q98 0 249 143l34 35l101 -117q-8 -9 -21.5 -24t-56 -53t-85.5 -67t-104 -53t-117 -24 h-318v533q0 101 -50.5 186.5t-136.5 135.5t-187 50q-74 0 -142.5 -28.5t-119 -76t-81 -114.5t-30.5 -140v-546h-160v546q0 98 -50.5 181t-136.5 130.5t-184 47.5q-101 0 -187 -50t-136.5 -135.5t-50.5 -186.5v-533h-159z" />
<glyph unicode="n" horiz-adv-x="1461" d="M0 0v1065h160v-234q33 71 101 126t145.5 81.5t152.5 26.5q107 0 202 -42.5t161 -114t104.5 -169.5t38.5 -206v-373h160q97 0 247 143l35 35l101 -117q-7 -9 -20.5 -24t-56 -53t-85.5 -67t-104 -53t-117 -24h-320v533q0 101 -50 186.5t-135.5 135.5t-186.5 50t-187 -50 t-136 -135.5t-50 -186.5v-533h-160z" />
<glyph unicode="o" horiz-adv-x="1359" d="M0 533q0 108 42.5 206.5t114 169.5t170 113.5t206.5 42.5t206.5 -42.5t169.5 -113.5t113.5 -169.5t42.5 -206.5t-40.5 -203.5t-114.5 -169.5h129q192 0 318 126q29 29 43 52l102 -117q-7 -9 -19.5 -24t-55.5 -53t-92.5 -67t-129.5 -53t-166 -24h-506q-108 0 -206.5 42.5 t-170 114t-114 170t-42.5 206.5zM160 533q0 -101 50 -187t136 -136t187 -50t186.5 50t135.5 136t50 187t-50 186.5t-135.5 135.5t-186.5 50t-187 -50t-136 -135.5t-50 -186.5z" />
<glyph unicode="p" horiz-adv-x="1461" d="M0 -798v1863h160v-155q74 74 169.5 114.5t203.5 40.5t206.5 -42.5t169.5 -113.5t113.5 -169.5t42.5 -206.5q0 -102 -37.5 -200.5t-108.5 -172.5h226q192 0 319 126q29 29 43 52l101 -117q-6 -9 -18.5 -24t-56 -53t-93 -67t-129.5 -53t-166 -24h-612q-111 0 -206.5 36.5 t-166.5 105.5v-940h-160zM160 533q0 -101 50 -187t136 -136t187 -50q104 0 190 51.5t134 137t48 184.5q0 101 -50 186.5t-135.5 135.5t-186.5 50q-74 0 -141.5 -28t-117.5 -76t-80.5 -114.5t-33.5 -140.5v-13z" />
<glyph unicode="q" horiz-adv-x="1461" d="M0 533q0 108 42.5 206.5t114 169.5t170 113.5t206.5 42.5q106 0 202 -40.5t170 -111.5v152h160v-905h80q192 0 319 126q29 29 43 52l101 -117q-6 -9 -18.5 -24t-56 -53t-93 -67t-129.5 -53t-166 -24h-80v-798h-160v950q-74 -72 -170 -112t-202 -40q-108 0 -206.5 42.5 t-170 114t-114 170t-42.5 206.5zM160 533q0 -101 50 -187t136 -136t187 -50t186.5 50t135.5 136t50 187v13q-3 74 -33.5 140.5t-80 114.5t-117 76t-141.5 28q-101 0 -187 -50t-136 -135.5t-50 -186.5z" />
<glyph unicode="r" horiz-adv-x="1380" d="M43 338q8 12 24 33.5t24.5 36t19 39.5t15 59t4.5 80v479h559v-532q0 -101 50 -187t136 -136t187 -50q192 0 320 126q29 29 43 52l101 -117q-6 -9 -18.5 -24t-56 -53t-93.5 -67t-130 -53t-166 -24q-108 0 -206 42.5t-169.5 114t-114 170t-42.5 206.5v386h-240v-330 q0 -75 -14 -136t-46 -118t-86 -114z" />
<glyph unicode="s" horiz-adv-x="1461" d="M38 330l617 735q184 -70 297 -213.5t113 -318.5q0 -108 -40.5 -203.5t-114.5 -169.5h235q192 0 319 126q29 29 43 52l101 -117q-6 -9 -18.5 -24t-56 -53t-93 -67t-129.5 -53t-166 -24h-612q-52 0 -105.5 9t-114 33t-112 60t-96 95t-67.5 133zM226 317q33 -64 124 -110.5 t188 -46.5q102 4 186.5 55t132.5 135t48 183q0 71 -26 136.5t-72 115.5t-106 81z" />
<glyph unicode="t" horiz-adv-x="841" d="M-133 919v146h133v373l160 26v-399h373l-27 -146h-346v-386q0 -101 50 -187t136 -136t187 -50q192 0 318 126q29 29 43 52l102 -117q-7 -9 -19 -24t-55.5 -53t-93 -67t-129.5 -53t-166 -24q-108 0 -206.5 42.5t-170 114t-114 170t-42.5 206.5v386h-133z" />
<glyph unicode="u" horiz-adv-x="1426" d="M0 533v532h160v-532q0 -101 50 -187t136 -136t187 -50t186.5 50t135.5 136t50 187v532h160v-532q0 -108 -40.5 -203.5t-114.5 -169.5h203q192 0 319 126q29 29 44 52l100 -117q-7 -9 -19 -24t-55.5 -53t-93 -67t-129.5 -53t-166 -24h-580q-108 0 -206.5 42.5t-170 114 t-114 170t-42.5 206.5z" />
<glyph unicode="v" horiz-adv-x="1331" d="M0 1065h160l330 -796l389 796h170l-431 -905h388q193 0 320 126q29 29 43 52l100 -117q-6 -9 -18.5 -24t-56 -53t-93 -67t-129.5 -53t-166 -24h-594l-140 365l-134 -154l-103 111l173 206z" />
<glyph unicode="w" horiz-adv-x="1753" d="M0 1065h160l330 -796l120 247l-211 549h160l147 -354l173 354h170l-264 -551l104 -245l389 796h170l-431 -905h421q192 0 318 126q29 29 43 52l102 -117q-7 -9 -19 -24t-55.5 -53t-93 -67t-129.5 -53t-166 -24h-626l-123 312l-148 -312h-129l-140 365l-134 -154l-103 111 l173 206z" />
<glyph unicode="x" horiz-adv-x="1118" d="M-242 1065h212l320 -399l320 399h213l-427 -532l300 -373h100q192 0 319 126q29 29 43 52l102 -117q-7 -9 -19.5 -24t-56 -53t-93 -67t-129.5 -53t-166 -24h-186l-320 399l-173 -213l-109 106l183 224z" />
<glyph unicode="y" horiz-adv-x="1461" d="M0 -373q0 141 68.5 261t185.5 191q-117 72 -185.5 192.5t-68.5 261.5v532h160v-532q0 -101 50 -187t136 -136t187 -50t186.5 50t135.5 136t50 187v532h160v-532q0 -108 -40.5 -203.5t-114.5 -169.5h235q192 0 319 126q29 29 43 52l101 -117q-6 -9 -18.5 -24t-56 -53 t-93 -67t-129.5 -53t-166 -24h-232q71 -74 111.5 -170.5t40.5 -202.5q0 -108 -42.5 -206.5t-113.5 -169.5t-169.5 -113.5t-206.5 -42.5t-206.5 42.5t-170 113.5t-114 169.5t-42.5 206.5zM160 -373q0 -101 50 -186.5t136 -135.5t187 -50t186.5 50t135.5 135.5t50 186.5 q0 98 -47.5 182.5t-130 135.5t-181.5 55h-13q-101 0 -187 -50t-136 -136t-50 -187z" />
<glyph unicode="z" horiz-adv-x="950" d="M-125 913v152h873l-511 -711l263 -194h147q193 0 319 126q29 29 43 52l101 -117q-6 -9 -18.5 -24t-56 -53t-93 -67t-129.5 -53t-166 -24h-218l-413 309l436 604h-577z" />
<glyph unicode="{" horiz-adv-x="958" d="M274 658v154q5 1 12.5 2t29.5 5.5t41.5 10.5t44 17.5t42 25.5t29.5 34.5t12 45.5q0 66 -75 168q-24 32 -39 55t-34 59.5t-30.5 69.5t-19 77t-7.5 91q0 63 14.5 118.5t40 95.5t58 72t68.5 51.5t71 29.5t67 10v-160q-24 0 -50.5 -13.5t-51.5 -38.5t-41.5 -68.5t-16.5 -96.5 q0 -41 8 -77.5t24.5 -70t30.5 -55.5t36 -53q27 -39 41.5 -61t32 -57t25.5 -70.5t8 -75.5q0 -31 -12.5 -64.5t-30.5 -60t-35.5 -48.5t-30.5 -34l-12 -12q121 -82 121 -218q0 -27 -3.5 -52t-12 -49t-16.5 -41.5t-23 -42t-24 -38t-28 -39.5q-22 -31 -36 -53.5t-30.5 -55.5 t-24.5 -70t-8 -78q0 -49 17.5 -90.5t44.5 -66.5t56 -39t55 -14v-160q-32 0 -68 10.5t-73.5 31t-71.5 52.5t-61 71.5t-42.5 93t-15.5 111.5t10 109.5t31.5 96t40 74.5t48.5 71q23 34 36.5 56t26 53.5t12.5 58.5q0 34 -21.5 60.5t-52.5 41t-62 24.5t-53 13z" />
<glyph unicode="|" horiz-adv-x="838" d="M346 -133v1997h160v-1997h-160z" />
<glyph unicode="}" horiz-adv-x="958" d="M274 516q0 136 120 218l-13 13t-28.5 32.5t-36.5 49.5t-29 59t-13 65q0 40 8 75.5t26 70.5t32 57t41 61q22 31 36 53t30.5 55.5t24.5 70t8 77.5q0 53 -16.5 96.5t-41 68.5t-51.5 38.5t-51 13.5v160q39 0 81 -14t85 -44t77 -73t55.5 -107t21.5 -139q0 -58 -11 -109.5 t-32.5 -96.5t-40 -75t-48.5 -71q-74 -100 -74 -168q0 -34 22 -60.5t53 -41t61.5 -24t52.5 -12.5l22 -3v-154q-5 -1 -12.5 -2t-29.5 -5.5t-41.5 -10.5t-44 -18t-42 -25.5t-29.5 -34.5t-12 -46q0 -27 12 -58.5t25.5 -54t36.5 -55.5q30 -41 48.5 -70.5t40.5 -75t32.5 -96.5 t10.5 -109q0 -70 -23 -131.5t-59 -104.5t-80.5 -74t-88.5 -45.5t-82 -14.5v160q26 0 55 14t56 39t44.5 66.5t17.5 90.5q0 41 -8 78t-24.5 70t-30.5 55.5t-36 53.5q-28 39 -41.5 60t-31.5 56.5t-26 70.5t-8 75z" />
<glyph unicode="~" horiz-adv-x="1862" d="M292 426q1 8 1.5 20.5t7.5 48t19 68.5t38 72.5t61 68.5t92.5 48.5t128.5 19.5q42 0 85 -9.5t74.5 -21.5t73 -36t64.5 -39.5t66 -46.5q9 -6 14 -9q32 -24 54 -39.5t53.5 -34.5t58 -30t59 -18.5t63.5 -7.5q30 0 55.5 6t43 17t32 25t23.5 29.5t15.5 30.5t9.5 29t5 25t2 17v7 h160q0 -8 -1 -20.5t-7.5 -48t-18.5 -68.5t-38 -72.5t-61 -68.5t-92 -48.5t-128 -19.5q-57 0 -110 12.5t-103 39.5t-88 53t-91 68q-42 30 -66.5 45.5t-62 35.5t-72.5 29t-72 9q-38 0 -69 -10t-50 -26.5t-33 -36.5t-20.5 -39.5t-10.5 -36t-4 -26.5l-1 -11h-160z" />
<glyph unicode="&#xa3;" horiz-adv-x="1727" d="M160 0l132 160h214v759h-133v146h133v373q0 56 20 107.5t59.5 93.5t105 66.5t147.5 24.5q67 0 122.5 -16t94 -44t65.5 -65.5t39 -79.5t12 -87h-160q0 17 -4.5 33t-14 30.5t-24 27t-33 22t-43.5 14.5t-54 5q-42 0 -75.5 -11t-54.5 -30t-31.5 -42.5t-10.5 -48.5v-373h292 v-146h-292l-8 -759h409q193 0 320 126q29 29 43 52l101 -117q-3 -5 -9.5 -13t-28.5 -30.5t-47.5 -43.5t-66.5 -46.5t-85.5 -44t-104 -31t-122.5 -12.5h-907z" />
<glyph unicode="&#xa4;" horiz-adv-x="2216" d="M482 61l250 251q-66 97 -66 221t66 221l-250 250l112 111l250 -249q102 66 220.5 66t221.5 -66l251 249l111 -111l-250 -250q66 -102 66 -221t-66 -221l250 -251l-111 -112l-251 251q-99 -67 -221.5 -67t-220.5 67l-250 -251zM826 533q0 -97 69.5 -169t169.5 -72 q97 0 168.5 70.5t71.5 170.5q0 47 -19 91t-51 76.5t-77 52t-93 19.5q-63 0 -118 -31t-88 -86.5t-33 -121.5z" />
<glyph unicode="&#xa5;" horiz-adv-x="1461" d="M0 1598h181l429 -895l407 895h182l-381 -800h247v-158h-323l-50 -107h373v-147h-373v-386h-159v386h-400v147h400l-53 107h-347v158h266z" />
<glyph unicode="&#xa6;" horiz-adv-x="838" d="M346 -133v799h160v-799h-160zM346 1065v799h160v-799h-160z" />
<glyph unicode="&#xa7;" horiz-adv-x="1283" d="M79 1196h160q0 -72 26.5 -136.5t71 -115t102.5 -96.5t122 -86t128 -78.5t122 -79t103 -83t71 -95t26 -109.5q0 -76 -32 -138t-86 -100t-120 -58.5t-137.5 -20.5t-136.5 20t-117.5 58t-84 100t-31.5 139h160q0 -45 19.5 -77.5t52.5 -50.5t70.5 -26t81.5 -8q84 0 139 41.5 t55 120.5q0 41 -27 77t-70.5 64.5t-106.5 66t-127 75t-140 97t-139 126.5q-81 98 -118 188t-37 185zM244 1410q0 77 31.5 138.5t84.5 100t118.5 59t136.5 20.5t136.5 -20t118 -58.5t84 -100t31.5 -139.5h-159q0 37 -13 65.5t-34.5 46.5t-51 29.5t-60.5 16.5t-65 5 q-85 0 -144 -41.5t-59 -121.5q0 -24 26.5 -53.5t71 -60.5t102 -67t121.5 -78.5t128 -89.5t122 -105t103 -121t71.5 -141t26.5 -161h-160v16q0 50 -14 98t-33.5 85t-57.5 78t-67 67.5t-82.5 63.5t-84 56.5t-89.5 55.5q-70 43 -105 65.5t-88.5 62.5t-79 70.5t-46 73 t-20.5 85.5z" />
<glyph unicode="&#xa8;" horiz-adv-x="1064" d="M53 1491q0 56 38.5 94.5t94.5 38.5t95 -38.5t39 -94t-39.5 -95t-95 -39.5t-94 39t-38.5 95zM719 1491q0 56 38.5 94.5t94.5 38.5q36 0 67 -17.5t48.5 -48t17.5 -67.5q0 -55 -39 -94.5t-94.5 -39.5t-94 39t-38.5 95z" />
<glyph unicode="&#xab;" horiz-adv-x="1908" d="M292 506v35l800 524v-186l-541 -346l541 -345v-188zM879 506v35l798 524v-186l-541 -346l541 -345v-188z" />
<glyph unicode="&#xac;" horiz-adv-x="1448" d="M266 559v147h933v-414h-160v267h-773z" />
<glyph unicode="&#xad;" horiz-adv-x="1375" d="M266 452v147h799v-147h-799z" />
<glyph unicode="&#xb0;" horiz-adv-x="665" d="M0 1464q0 110 78 188t188.5 78t188.5 -78t78 -188t-78 -187.5t-188.5 -77.5t-188.5 77.5t-78 187.5zM147 1464q0 -50 35 -85t84 -35q32 0 59.5 16t44 43.5t16.5 60.5q0 48 -36 84.5t-84 36.5q-49 0 -84 -36.5t-35 -84.5z" />
<glyph unicode="&#xb2;" horiz-adv-x="1212" d="M53 1517q0 56 38.5 95t94.5 39q36 0 67 -18t49 -48.5t18 -67.5q0 -55 -39 -94t-95 -39q-37 0 -67.5 18t-48 48.5t-17.5 66.5zM452 1517.5q0 55.5 39.5 94.5t95 39t94 -39t38.5 -94.5t-38.5 -94.5t-94 -39t-95 39t-39.5 94.5z" />
<glyph unicode="&#xb3;" horiz-adv-x="1207" d="M53 1517q0 56 38.5 95t94.5 39q36 0 67 -18t49 -48.5t18 -67.5q0 -55 -39 -94t-95 -39q-37 0 -67.5 18t-48 48.5t-17.5 66.5zM452 1517.5q0 55.5 39.5 94.5t95 39t94 -39t38.5 -94.5t-38.5 -94.5t-94 -39t-95 39t-39.5 94.5zM852 1517.5q0 55.5 39 94.5t94.5 39t94 -39 t38.5 -94.5t-38.5 -94.5t-94 -39t-94.5 39t-39 94.5z" />
<glyph unicode="&#xb5;" horiz-adv-x="1461" d="M0 -798v1863h160v-532q0 -101 50 -187t136 -136t187 -50t186.5 50t135.5 136t50 187v532h160v-532q0 -108 -40.5 -203.5t-114.5 -169.5h235q192 0 319 126q29 29 43 52l101 -117q-6 -9 -18.5 -24t-56 -53t-93 -67t-129.5 -53t-166 -24h-612q-108 0 -203.5 40.5 t-169.5 114.5v-953h-160z" />
<glyph unicode="&#xb6;" horiz-adv-x="1212" d="M0 1331q0 68 24.5 120t68.5 83.5t101 47.5t126 16h160v-1598h-160v1065q-69 0 -125.5 15.5t-101 46.5t-69 83t-24.5 121zM640 0v1598h158v-1598h-158z" />
<glyph unicode="&#xb7;" d="M399 532.5q0 55.5 39 94.5t95 39t94.5 -38.5t38.5 -94.5t-39 -95t-94.5 -39t-94.5 39t-39 94.5z" />
<glyph unicode="&#xb9;" horiz-adv-x="930" d="M0 1597.5q0 55.5 38.5 94t94 38.5t94.5 -38.5t39 -94t-39 -94.5t-94.5 -39t-94 39t-38.5 94.5z" />
<glyph unicode="&#xbb;" horiz-adv-x="1908" d="M292 0v188l541 345l-541 346v186l800 -524v-35zM879 0v188l541 345l-541 346v186l798 -524v-35z" />
<glyph unicode="&#xf7;" horiz-adv-x="1489" d="M224 533v146h932v-146h-932zM569 266q0 37 18 67.5t49 48t67.5 17.5t67 -17.5t48 -48t17.5 -67.5q0 -55 -38.5 -94t-94 -39t-95 39t-39.5 94zM569 932.5q0 55.5 39.5 94t95 38.5t94 -38.5t38.5 -94.5q0 -36 -17.5 -67t-48 -49t-67.5 -18q-55 0 -94.5 39.5t-39.5 95z" />
<glyph unicode="&#x2000;" horiz-adv-x="968" />
<glyph unicode="&#x2001;" horiz-adv-x="1936" />
<glyph unicode="&#x2002;" horiz-adv-x="968" />
<glyph unicode="&#x2003;" horiz-adv-x="1936" />
<glyph unicode="&#x2004;" horiz-adv-x="645" />
<glyph unicode="&#x2005;" horiz-adv-x="484" />
<glyph unicode="&#x2006;" horiz-adv-x="322" />
<glyph unicode="&#x2007;" horiz-adv-x="322" />
<glyph unicode="&#x2008;" horiz-adv-x="242" />
<glyph unicode="&#x2009;" horiz-adv-x="387" />
<glyph unicode="&#x200a;" horiz-adv-x="107" />
<glyph unicode="&#x2010;" horiz-adv-x="1375" d="M266 452v147h799v-147h-799z" />
<glyph unicode="&#x2011;" horiz-adv-x="1375" d="M266 452v147h799v-147h-799z" />
<glyph unicode="&#x2012;" horiz-adv-x="1375" d="M266 452v147h799v-147h-799z" />
<glyph unicode="&#x2013;" horiz-adv-x="1448" d="M266 452v147h933v-147h-933z" />
<glyph unicode="&#x2014;" horiz-adv-x="1875" d="M266 452v147h1332v-147h-1332z" />
<glyph unicode="&#x2018;" d="M399 932v798h160v-798h-160z" />
<glyph unicode="&#x2019;" d="M399 932v798h160v-798h-160z" />
<glyph unicode="&#x201a;" d="M399 -399v798h160v-798h-160z" />
<glyph unicode="&#x201c;" d="M133 932v798h159v-798h-159zM480 932v798h160v-798h-160z" />
<glyph unicode="&#x201d;" d="M133 932v798h159v-798h-159zM480 932v798h160v-798h-160z" />
<glyph unicode="&#x201e;" horiz-adv-x="1037" d="M399 -399v798h160v-798h-160zM719 -399v798h160v-798h-160z" />
<glyph unicode="&#x2022;" horiz-adv-x="1197" d="M399 599q0 40 16 77t43 63.5t64 42.5t77 16q82 0 140.5 -58.5t58.5 -140.5t-58.5 -141t-140.5 -59t-141 59t-59 141z" />
<glyph unicode="&#x2026;" horiz-adv-x="2388" d="M266 133q0 36 18 67t48.5 48.5t66.5 17.5q56 0 95 -39t39 -94q0 -37 -18 -67.5t-48.5 -48t-67.5 -17.5q-55 0 -94 38.5t-39 94.5zM1062 132.5q0 55.5 39 94.5t94.5 39t94.5 -39t39 -94.5t-38.5 -94t-94.5 -38.5t-95 38.5t-39 94zM1859 132.5q0 55.5 38.5 94.5t94 39 t94 -39t38.5 -94.5t-38.5 -94t-94 -38.5t-94 38.5t-38.5 94z" />
<glyph unicode="&#x202f;" horiz-adv-x="387" />
<glyph unicode="&#x2039;" horiz-adv-x="1357" d="M292 506v35l800 524v-186l-541 -346l541 -345v-188z" />
<glyph unicode="&#x203a;" horiz-adv-x="1357" d="M292 0v188l541 345l-541 346v186l800 -524v-35z" />
<glyph unicode="&#x205f;" horiz-adv-x="484" />
<glyph unicode="&#x25fc;" horiz-adv-x="1064" d="M0 0v1065h1065v-1065h-1065z" />
</font>
</defs>
</svg>
